<svg width="35" height="36" viewBox="0 0 35 36" fill="none" xmlns="http://www.w3.org/2000/svg">
<path d="M33.75 30.5H1.25C0.546875 30.5 0 31.125 0 31.75V34.25C0 34.9531 0.546875 35.5 1.25 35.5H33.75C34.375 35.5 35 34.9531 35 34.25V31.75C35 31.125 34.375 30.5 33.75 30.5ZM33.75 20.5H1.25C0.546875 20.5 0 21.125 0 21.75V24.25C0 24.9531 0.546875 25.5 1.25 25.5H33.75C34.375 25.5 35 24.9531 35 24.25V21.75C35 21.125 34.375 20.5 33.75 20.5ZM33.75 10.5H1.25C0.546875 10.5 0 11.125 0 11.75V14.25C0 14.9531 0.546875 15.5 1.25 15.5H33.75C34.375 15.5 35 14.9531 35 14.25V11.75C35 11.125 34.375 10.5 33.75 10.5ZM33.75 0.5H1.25C0.546875 0.5 0 1.125 0 1.75V4.25C0 4.95312 0.546875 5.5 1.25 5.5H33.75C34.375 5.5 35 4.95312 35 4.25V1.75C35 1.125 34.375 0.5 33.75 0.5Z" fill="white"/>
</svg>
