<svg width="354" height="74" viewBox="0 0 354 74" fill="none" xmlns="http://www.w3.org/2000/svg">
<path d="M7.56 11H12.84C14.5467 11 16.0133 11.3067 17.24 11.92C18.4667 12.5333 19.4133 13.4267 20.08 14.6C20.7467 15.7467 21.08 17.12 21.08 18.72C21.08 19.9467 20.84 21.0533 20.36 22.04C19.88 23 19.24 23.8133 18.44 24.48C17.64 25.1467 16.7333 25.6533 15.72 26C14.7067 26.32 13.6533 26.44 12.56 26.36C11.4933 26.28 10.4533 25.9733 9.44 25.44V25.04C9.44 25.04 9.66667 25.08 10.12 25.16C10.5733 25.2133 11.1467 25.2267 11.84 25.2C12.56 25.1467 13.3067 25 14.08 24.76C14.88 24.4933 15.6133 24.04 16.28 23.4C16.9733 22.76 17.4933 21.8667 17.84 20.72C17.92 20.4267 17.9867 20.0667 18.04 19.64C18.0933 19.1867 18.1067 18.7467 18.08 18.32C18.0533 16.48 17.5733 15 16.64 13.88C15.7067 12.76 14.3867 12.2 12.68 12.2H7.96C7.96 12.2 7.92 12.1067 7.84 11.92C7.78667 11.7067 7.72 11.5067 7.64 11.32C7.58667 11.1067 7.56 11 7.56 11ZM8.08 11V39H5.48V11H8.08ZM5.6 36.08V39H2.4V38.6C2.4 38.6 2.48 38.6 2.64 38.6C2.82667 38.6 2.92 38.6 2.92 38.6C3.61333 38.6 4.2 38.36 4.68 37.88C5.18667 37.3733 5.45333 36.7733 5.48 36.08H5.6ZM5.6 13.92H5.48C5.48 13.2267 5.22667 12.64 4.72 12.16C4.21333 11.6533 3.61333 11.4 2.92 11.4C2.92 11.4 2.84 11.4 2.68 11.4C2.52 11.4 2.44 11.4 2.44 11.4L2.4 11H5.6V13.92ZM7.96 36.08H8.08C8.10667 36.7733 8.36 37.3733 8.84 37.88C9.34667 38.36 9.94667 38.6 10.64 38.6C10.64 38.6 10.72 38.6 10.88 38.6C11.0667 38.6 11.16 38.6 11.16 38.6V39H7.96V36.08ZM35.0953 15V39H32.5753V15H35.0953ZM32.6953 36.44V39H29.2953V38.6C29.2953 38.6 29.3886 38.6 29.5753 38.6C29.762 38.6 29.8553 38.6 29.8553 38.6C30.602 38.6 31.2286 38.3867 31.7353 37.96C32.2686 37.5333 32.5486 37.0267 32.5753 36.44H32.6953ZM34.9753 36.44H35.0953C35.122 37.0267 35.3886 37.5333 35.8953 37.96C36.4286 38.3867 37.0686 38.6 37.8153 38.6C37.8153 38.6 37.8953 38.6 38.0553 38.6C38.242 38.6 38.3353 38.6 38.3353 38.6L38.3753 39H34.9753V36.44ZM34.9753 17.56V15H38.3753L38.3353 15.4C38.3353 15.4 38.242 15.4 38.0553 15.4C37.8953 15.4 37.8153 15.4 37.8153 15.4C37.0686 15.4 36.4286 15.6133 35.8953 16.04C35.3886 16.44 35.122 16.9467 35.0953 17.56H34.9753ZM32.6953 17.56H32.5753C32.5486 16.9467 32.2686 16.44 31.7353 16.04C31.2286 15.6133 30.602 15.4 29.8553 15.4C29.8286 15.4 29.722 15.4 29.5353 15.4C29.3753 15.4 29.2953 15.4 29.2953 15.4V15H32.6953V17.56ZM65.7328 14.44C65.7328 14.44 65.7328 14.5067 65.7328 14.64C65.7328 14.7467 65.7328 14.8 65.7328 14.8L49.7328 39H46.9328V38.64L61.8528 16.16H47.5328V14.96H61.2128C61.7728 14.96 62.3728 14.9333 63.0128 14.88C63.6528 14.8267 64.2261 14.76 64.7328 14.68C65.2395 14.6 65.5728 14.52 65.7328 14.44ZM66.0928 37.8L65.8128 39H49.5328V37.8H66.0928ZM68.2528 33.28L66.0928 39H60.0928L61.4528 37.8C62.7595 37.7733 63.7995 37.5733 64.5728 37.2C65.3728 36.8267 66.0261 36.3067 66.5328 35.64C67.0395 34.9467 67.4795 34.16 67.8528 33.28H68.2528ZM47.5328 16.08H49.9728V16.16C49.3861 16.1867 48.9061 16.4 48.5328 16.8C48.1595 17.1733 47.9728 17.6533 47.9728 18.24V18.84H47.5328V16.08ZM47.5328 14.32C47.7728 14.4 48.1461 14.4933 48.6528 14.6C49.1595 14.68 49.7061 14.76 50.2928 14.84C50.9061 14.8933 51.4795 14.9333 52.0128 14.96L47.5328 15.36V14.32ZM94.4687 14.44C94.4687 14.44 94.4687 14.5067 94.4687 14.64C94.4687 14.7467 94.4687 14.8 94.4687 14.8L78.4687 39H75.6687V38.64L90.5887 16.16H76.2687V14.96H89.9487C90.5087 14.96 91.1087 14.9333 91.7487 14.88C92.3887 14.8267 92.9621 14.76 93.4687 14.68C93.9754 14.6 94.3087 14.52 94.4687 14.44ZM94.8287 37.8L94.5487 39H78.2687V37.8H94.8287ZM96.9887 33.28L94.8287 39H88.8287L90.1887 37.8C91.4954 37.7733 92.5354 37.5733 93.3087 37.2C94.1087 36.8267 94.7621 36.3067 95.2687 35.64C95.7754 34.9467 96.2154 34.16 96.5887 33.28H96.9887ZM76.2687 16.08H78.7087V16.16C78.1221 16.1867 77.6421 16.4 77.2687 16.8C76.8954 17.1733 76.7087 17.6533 76.7087 18.24V18.84H76.2687V16.08ZM76.2687 14.32C76.5087 14.4 76.8821 14.4933 77.3887 14.6C77.8954 14.68 78.4421 14.76 79.0287 14.84C79.6421 14.8933 80.2154 14.9333 80.7487 14.96L76.2687 15.36V14.32ZM110.045 15V39H107.485V15H110.045ZM120.805 37.76L120.725 39H109.965V37.76H120.805ZM118.925 26.4V27.6H109.965V26.4H118.925ZM120.765 15V16.24H109.965V15H120.765ZM123.045 33.28L120.845 39H114.765L116.125 37.76C117.458 37.76 118.525 37.5733 119.325 37.2C120.151 36.8 120.818 36.2667 121.325 35.6C121.831 34.9067 122.271 34.1333 122.645 33.28H123.045ZM118.925 27.52V29.8H118.485V29.28C118.485 28.8267 118.351 28.44 118.085 28.12C117.818 27.7733 117.405 27.6 116.845 27.6V27.52H118.925ZM118.925 24.2V26.48H116.845V26.4C117.405 26.4 117.818 26.24 118.085 25.92C118.351 25.5733 118.485 25.1733 118.485 24.72V24.2H118.925ZM120.765 16.12V18.88H120.325V18.28C120.325 17.72 120.138 17.24 119.765 16.84C119.418 16.44 118.938 16.24 118.325 16.24V16.12H120.765ZM120.765 14.36V15.4L116.205 15C117.031 15 117.911 14.9333 118.845 14.8C119.778 14.64 120.418 14.4933 120.765 14.36ZM107.565 36.44L108.085 39H104.605V38.6C104.605 38.6 104.698 38.6 104.885 38.6C105.071 38.6 105.165 38.6 105.165 38.6C105.831 38.6 106.378 38.3867 106.805 37.96C107.231 37.5333 107.458 37.0267 107.485 36.44H107.565ZM107.565 17.52H107.485C107.458 16.9067 107.231 16.4 106.805 16C106.378 15.6 105.831 15.4 105.165 15.4C105.165 15.4 105.071 15.4 104.885 15.4C104.698 15.4 104.605 15.4 104.605 15.4V15H108.085L107.565 17.52ZM135.33 15H140.49C141.743 15 142.863 15.1467 143.85 15.44C144.863 15.7333 145.717 16.16 146.41 16.72C147.13 17.28 147.677 17.96 148.05 18.76C148.423 19.56 148.61 20.4667 148.61 21.48C148.61 22.6 148.343 23.64 147.81 24.6C147.277 25.56 146.53 26.3467 145.57 26.96C144.637 27.5733 143.57 27.9467 142.37 28.08C142.823 28.2667 143.343 28.68 143.93 29.32C144.543 29.96 145.063 30.5867 145.49 31.2C145.49 31.2 145.663 31.44 146.01 31.92C146.357 32.3733 146.797 32.9467 147.33 33.64C147.89 34.3067 148.437 34.9467 148.97 35.56C149.53 36.1733 150.037 36.7067 150.49 37.16C150.97 37.6133 151.477 37.9733 152.01 38.24C152.57 38.48 153.21 38.6 153.93 38.6V39H152.69C151.223 39 150.01 38.8133 149.05 38.44C148.117 38.0667 147.357 37.6133 146.77 37.08C146.183 36.52 145.677 35.9867 145.25 35.48C145.143 35.3467 144.89 35.0133 144.49 34.48C144.117 33.92 143.703 33.32 143.25 32.68C142.797 32.04 142.383 31.4667 142.01 30.96C141.637 30.4267 141.41 30.1067 141.33 30C140.797 29.3067 140.183 28.6933 139.49 28.16C138.797 27.6 138.063 27.32 137.29 27.32V26.92C137.29 26.92 137.503 26.9333 137.93 26.96C138.357 26.96 138.903 26.9467 139.57 26.92C140.317 26.8933 141.063 26.84 141.81 26.76C142.557 26.6533 143.25 26.36 143.89 25.88C144.557 25.4 145.077 24.6 145.45 23.48C145.557 23.1867 145.637 22.84 145.69 22.44C145.743 22.04 145.757 21.6267 145.73 21.2C145.703 20.4533 145.557 19.7867 145.29 19.2C145.05 18.6133 144.69 18.1067 144.21 17.68C143.757 17.2533 143.21 16.92 142.57 16.68C141.93 16.44 141.21 16.3067 140.41 16.28C139.157 16.2267 138.063 16.2133 137.13 16.24C136.197 16.2667 135.73 16.2667 135.73 16.24C135.73 16.2133 135.69 16.1067 135.61 15.92C135.557 15.7067 135.49 15.5067 135.41 15.32C135.357 15.1067 135.33 15 135.33 15ZM135.81 15V39H133.25V15H135.81ZM133.37 36.44L133.85 39H130.45V38.6C130.45 38.6 130.543 38.6 130.73 38.6C130.917 38.6 131.01 38.6 131.01 38.6C131.65 38.6 132.183 38.3867 132.61 37.96C133.037 37.5333 133.263 37.0267 133.29 36.44H133.37ZM133.37 17.52H133.29C133.263 16.9067 133.037 16.4 132.61 16C132.183 15.6 131.65 15.4 131.01 15.4C131.01 15.4 130.917 15.4 130.73 15.4C130.543 15.4 130.45 15.4 130.45 15.4V15H133.85L133.37 17.52ZM135.69 36.44H135.81C135.837 37.0267 136.063 37.5333 136.49 37.96C136.917 38.3867 137.45 38.6 138.09 38.6C138.09 38.6 138.17 38.6 138.33 38.6C138.517 38.6 138.61 38.6 138.61 38.6L138.65 39H135.21L135.69 36.44ZM165.728 15V39H163.208V15H165.728ZM163.328 36.44V39H159.928V38.6C159.928 38.6 160.021 38.6 160.208 38.6C160.395 38.6 160.488 38.6 160.488 38.6C161.235 38.6 161.861 38.3867 162.368 37.96C162.901 37.5333 163.181 37.0267 163.208 36.44H163.328ZM165.608 36.44H165.728C165.755 37.0267 166.021 37.5333 166.528 37.96C167.061 38.3867 167.701 38.6 168.448 38.6C168.448 38.6 168.528 38.6 168.688 38.6C168.875 38.6 168.968 38.6 168.968 38.6L169.008 39H165.608V36.44ZM165.608 17.56V15H169.008L168.968 15.4C168.968 15.4 168.875 15.4 168.688 15.4C168.528 15.4 168.448 15.4 168.448 15.4C167.701 15.4 167.061 15.6133 166.528 16.04C166.021 16.44 165.755 16.9467 165.728 17.56H165.608ZM163.328 17.56H163.208C163.181 16.9467 162.901 16.44 162.368 16.04C161.861 15.6133 161.235 15.4 160.488 15.4C160.461 15.4 160.355 15.4 160.168 15.4C160.008 15.4 159.928 15.4 159.928 15.4V15H163.328V17.56ZM189.006 14.44L200.006 38.76H196.846L188.326 18L189.006 14.44ZM181.286 36.08C180.992 36.88 181.032 37.5067 181.406 37.96C181.779 38.3867 182.206 38.6 182.686 38.6H183.006V39H175.366V38.6C175.366 38.6 175.419 38.6 175.526 38.6C175.632 38.6 175.686 38.6 175.686 38.6C176.246 38.6 176.819 38.4133 177.406 38.04C177.992 37.64 178.499 36.9867 178.926 36.08H181.286ZM189.006 14.44L189.286 17.2L180.126 38.88H177.606L187.086 18.56C187.086 18.56 187.152 18.4 187.286 18.08C187.446 17.76 187.619 17.3733 187.806 16.92C188.019 16.44 188.206 15.9733 188.366 15.52C188.526 15.0667 188.619 14.7067 188.646 14.44H189.006ZM193.726 29.68V30.88H183.126V29.68H193.726ZM195.766 36.08H198.806C199.206 36.9867 199.699 37.64 200.286 38.04C200.872 38.4133 201.432 38.6 201.966 38.6C201.966 38.6 202.019 38.6 202.126 38.6C202.232 38.6 202.286 38.6 202.286 38.6V39H194.086V38.6H194.406C194.859 38.6 195.272 38.3867 195.646 37.96C196.019 37.5067 196.059 36.88 195.766 36.08ZM226.489 15H231.249C231.969 15 232.796 15.0667 233.729 15.2C234.689 15.3333 235.609 15.6 236.489 16C237.369 16.4 238.102 17 238.689 17.8C239.276 18.6 239.569 19.6667 239.569 21C239.569 21.8 239.356 22.5467 238.929 23.24C238.502 23.9333 237.956 24.52 237.289 25C236.622 25.4533 235.916 25.7733 235.169 25.96C236.476 26.0933 237.622 26.4667 238.609 27.08C239.622 27.6667 240.422 28.4133 241.009 29.32C241.596 30.2267 241.889 31.2133 241.889 32.28C241.889 33.5867 241.609 34.68 241.049 35.56C240.516 36.4133 239.809 37.0933 238.929 37.6C238.049 38.1067 237.089 38.4667 236.049 38.68C235.009 38.8933 233.996 39 233.009 39H228.129C228.129 39 228.129 38.9067 228.129 38.72C228.156 38.5067 228.169 38.3067 228.169 38.12C228.169 37.9067 228.169 37.8 228.169 37.8H232.969C234.116 37.8 235.142 37.6133 236.049 37.24C236.982 36.84 237.716 36.2267 238.249 35.4C238.782 34.5733 239.049 33.5333 239.049 32.28C239.049 31 238.769 29.9733 238.209 29.2C237.649 28.4 236.916 27.8 236.009 27.4C235.102 26.9733 234.102 26.6933 233.009 26.56C231.916 26.4 230.822 26.32 229.729 26.32V25.92C230.449 25.92 231.222 25.8667 232.049 25.76C232.876 25.6533 233.636 25.44 234.329 25.12C235.049 24.7733 235.636 24.28 236.089 23.64C236.542 22.9733 236.769 22.0933 236.769 21C236.769 19.32 236.276 18.1067 235.289 17.36C234.302 16.5867 232.942 16.2 231.209 16.2H226.849C226.849 16.1733 226.809 16.0667 226.729 15.88C226.676 15.6667 226.622 15.4667 226.569 15.28C226.516 15.0933 226.489 15 226.489 15ZM228.489 15V39H225.969V15H228.489ZM226.089 36.44V39H223.089V38.6C223.089 38.6 223.169 38.6 223.329 38.6C223.489 38.6 223.569 38.6 223.569 38.6C224.262 38.6 224.822 38.3867 225.249 37.96C225.702 37.5333 225.942 37.0267 225.969 36.44H226.089ZM226.089 17.56H225.969C225.942 16.92 225.702 16.4 225.249 16C224.822 15.6 224.262 15.4 223.569 15.4C223.569 15.4 223.489 15.4 223.329 15.4C223.169 15.4 223.089 15.4 223.089 15.4V15H226.089V17.56ZM255.742 15V39H253.182V15H255.742ZM266.502 37.76L266.422 39H255.662V37.76H266.502ZM264.622 26.4V27.6H255.662V26.4H264.622ZM266.462 15V16.24H255.662V15H266.462ZM268.742 33.28L266.542 39H260.462L261.822 37.76C263.155 37.76 264.222 37.5733 265.022 37.2C265.848 36.8 266.515 36.2667 267.022 35.6C267.528 34.9067 267.968 34.1333 268.342 33.28H268.742ZM264.622 27.52V29.8H264.182V29.28C264.182 28.8267 264.048 28.44 263.782 28.12C263.515 27.7733 263.102 27.6 262.542 27.6V27.52H264.622ZM264.622 24.2V26.48H262.542V26.4C263.102 26.4 263.515 26.24 263.782 25.92C264.048 25.5733 264.182 25.1733 264.182 24.72V24.2H264.622ZM266.462 16.12V18.88H266.022V18.28C266.022 17.72 265.835 17.24 265.462 16.84C265.115 16.44 264.635 16.24 264.022 16.24V16.12H266.462ZM266.462 14.36V15.4L261.902 15C262.728 15 263.608 14.9333 264.542 14.8C265.475 14.64 266.115 14.4933 266.462 14.36ZM253.262 36.44L253.782 39H250.302V38.6C250.302 38.6 250.395 38.6 250.582 38.6C250.768 38.6 250.862 38.6 250.862 38.6C251.528 38.6 252.075 38.3867 252.502 37.96C252.928 37.5333 253.155 37.0267 253.182 36.44H253.262ZM253.262 17.52H253.182C253.155 16.9067 252.928 16.4 252.502 16C252.075 15.6 251.528 15.4 250.862 15.4C250.862 15.4 250.768 15.4 250.582 15.4C250.395 15.4 250.302 15.4 250.302 15.4V15H253.782L253.262 17.52ZM281.587 15V39H279.027V15H281.587ZM292.347 37.76L292.267 39H281.507V37.76H292.347ZM294.587 33.28L292.387 39H286.307L287.667 37.76C289 37.76 290.067 37.5733 290.867 37.2C291.694 36.8 292.36 36.2667 292.867 35.6C293.374 34.9067 293.814 34.1333 294.187 33.28H294.587ZM279.107 36.44L279.627 39H276.147V38.6C276.147 38.6 276.24 38.6 276.427 38.6C276.614 38.6 276.707 38.6 276.707 38.6C277.374 38.6 277.92 38.3867 278.347 37.96C278.774 37.5333 279 37.0267 279.027 36.44H279.107ZM281.467 17.56V15H284.427V15.4C284.427 15.4 284.347 15.4 284.187 15.4C284.027 15.4 283.947 15.4 283.947 15.4C283.307 15.4 282.747 15.6133 282.267 16.04C281.814 16.44 281.587 16.9467 281.587 17.56H281.467ZM279.107 17.56H279.027C279 16.9467 278.76 16.44 278.307 16.04C277.854 15.6133 277.294 15.4 276.627 15.4C276.627 15.4 276.547 15.4 276.387 15.4C276.227 15.4 276.147 15.4 276.147 15.4V15H279.107V17.56ZM306.456 15V39H303.896V15H306.456ZM317.216 37.76L317.136 39H306.376V37.76H317.216ZM319.456 33.28L317.256 39H311.176L312.536 37.76C313.869 37.76 314.936 37.5733 315.736 37.2C316.562 36.8 317.229 36.2667 317.736 35.6C318.242 34.9067 318.682 34.1333 319.056 33.28H319.456ZM303.976 36.44L304.496 39H301.016V38.6C301.016 38.6 301.109 38.6 301.296 38.6C301.482 38.6 301.576 38.6 301.576 38.6C302.242 38.6 302.789 38.3867 303.216 37.96C303.642 37.5333 303.869 37.0267 303.896 36.44H303.976ZM306.336 17.56V15H309.296V15.4C309.296 15.4 309.216 15.4 309.056 15.4C308.896 15.4 308.816 15.4 308.816 15.4C308.176 15.4 307.616 15.6133 307.136 16.04C306.682 16.44 306.456 16.9467 306.456 17.56H306.336ZM303.976 17.56H303.896C303.869 16.9467 303.629 16.44 303.176 16.04C302.722 15.6133 302.162 15.4 301.496 15.4C301.496 15.4 301.416 15.4 301.256 15.4C301.096 15.4 301.016 15.4 301.016 15.4V15H303.976V17.56ZM338.101 14.44L349.101 38.76H345.941L337.421 18L338.101 14.44ZM330.381 36.08C330.088 36.88 330.128 37.5067 330.501 37.96C330.874 38.3867 331.301 38.6 331.781 38.6H332.101V39H324.461V38.6C324.461 38.6 324.514 38.6 324.621 38.6C324.728 38.6 324.781 38.6 324.781 38.6C325.341 38.6 325.914 38.4133 326.501 38.04C327.088 37.64 327.594 36.9867 328.021 36.08H330.381ZM338.101 14.44L338.381 17.2L329.221 38.88H326.701L336.181 18.56C336.181 18.56 336.248 18.4 336.381 18.08C336.541 17.76 336.714 17.3733 336.901 16.92C337.114 16.44 337.301 15.9733 337.461 15.52C337.621 15.0667 337.714 14.7067 337.741 14.44H338.101ZM342.821 29.68V30.88H332.221V29.68H342.821ZM344.861 36.08H347.901C348.301 36.9867 348.794 37.64 349.381 38.04C349.968 38.4133 350.528 38.6 351.061 38.6C351.061 38.6 351.114 38.6 351.221 38.6C351.328 38.6 351.381 38.6 351.381 38.6V39H343.181V38.6H343.501C343.954 38.6 344.368 38.3867 344.741 37.96C345.114 37.5067 345.154 36.88 344.861 36.08Z" fill="#FFFCFC"/>
<path d="M58 60V69H57.055V60H58ZM57.1 68.04V69H55.825V68.85C55.825 68.85 55.86 68.85 55.93 68.85C56 68.85 56.035 68.85 56.035 68.85C56.315 68.85 56.55 68.77 56.74 68.61C56.94 68.45 57.045 68.26 57.055 68.04H57.1ZM57.955 68.04H58C58.01 68.26 58.11 68.45 58.3 68.61C58.5 68.77 58.74 68.85 59.02 68.85C59.02 68.85 59.05 68.85 59.11 68.85C59.18 68.85 59.215 68.85 59.215 68.85L59.23 69H57.955V68.04ZM57.955 60.96V60H59.23L59.215 60.15C59.215 60.15 59.18 60.15 59.11 60.15C59.05 60.15 59.02 60.15 59.02 60.15C58.74 60.15 58.5 60.23 58.3 60.39C58.11 60.54 58.01 60.73 58 60.96H57.955ZM57.1 60.96H57.055C57.045 60.73 56.94 60.54 56.74 60.39C56.55 60.23 56.315 60.15 56.035 60.15C56.025 60.15 55.985 60.15 55.915 60.15C55.855 60.15 55.825 60.15 55.825 60.15V60H57.1V60.96ZM76.3441 60.045V69H75.3691V60.045H76.3441ZM79.9741 59.985V60.435H71.7391V59.985H79.9741ZM79.9741 60.405V61.44H79.8091V61.2C79.8091 60.99 79.7391 60.815 79.5991 60.675C79.4691 60.525 79.2891 60.445 79.0591 60.435V60.405H79.9741ZM79.9741 59.745V60.135L78.2941 59.985C78.4941 59.985 78.7041 59.975 78.9241 59.955C79.1541 59.925 79.3641 59.89 79.5541 59.85C79.7441 59.81 79.8841 59.775 79.9741 59.745ZM75.3991 68.04V69H74.3041V68.85C74.3141 68.85 74.3441 68.85 74.3941 68.85C74.4541 68.85 74.4841 68.85 74.4841 68.85C74.7241 68.85 74.9291 68.77 75.0991 68.61C75.2691 68.45 75.3591 68.26 75.3691 68.04H75.3991ZM76.2991 68.04H76.3441C76.3541 68.26 76.4441 68.45 76.6141 68.61C76.7841 68.77 76.9891 68.85 77.2291 68.85C77.2291 68.85 77.2541 68.85 77.3041 68.85C77.3641 68.85 77.3941 68.85 77.3941 68.85V69H76.2991V68.04ZM72.6541 60.405V60.435C72.4241 60.445 72.2391 60.525 72.0991 60.675C71.9691 60.815 71.9041 60.99 71.9041 61.2V61.44H71.7391V60.405H72.6541ZM71.7391 59.745C71.8291 59.775 71.9641 59.81 72.1441 59.85C72.3341 59.89 72.5441 59.925 72.7741 59.955C73.0041 59.975 73.2191 59.985 73.4191 59.985L71.7391 60.135V59.745ZM95.6463 59.79L99.7713 68.91H98.5863L95.3913 61.125L95.6463 59.79ZM92.7513 67.905C92.6413 68.205 92.6563 68.44 92.7963 68.61C92.9363 68.77 93.0963 68.85 93.2763 68.85H93.3963V69H90.5313V68.85C90.5313 68.85 90.5513 68.85 90.5913 68.85C90.6313 68.85 90.6513 68.85 90.6513 68.85C90.8613 68.85 91.0763 68.78 91.2963 68.64C91.5163 68.49 91.7063 68.245 91.8663 67.905H92.7513ZM95.6463 59.79L95.7513 60.825L92.3163 68.955H91.3713L94.9263 61.335C94.9263 61.335 94.9513 61.275 95.0013 61.155C95.0613 61.035 95.1263 60.89 95.1963 60.72C95.2763 60.54 95.3463 60.365 95.4063 60.195C95.4663 60.025 95.5013 59.89 95.5113 59.79H95.6463ZM97.4163 65.505V65.955H93.4413V65.505H97.4163ZM98.1813 67.905H99.3213C99.4713 68.245 99.6563 68.49 99.8763 68.64C100.096 68.78 100.306 68.85 100.506 68.85C100.506 68.85 100.526 68.85 100.566 68.85C100.606 68.85 100.626 68.85 100.626 68.85V69H97.5513V68.85H97.6713C97.8413 68.85 97.9963 68.77 98.1363 68.61C98.2763 68.44 98.2913 68.205 98.1813 67.905ZM114.893 60V69H113.933V60H114.893ZM118.928 68.535L118.898 69H114.863V68.535H118.928ZM119.768 66.855L118.943 69H116.663L117.173 68.535C117.673 68.535 118.073 68.465 118.373 68.325C118.683 68.175 118.933 67.975 119.123 67.725C119.313 67.465 119.478 67.175 119.618 66.855H119.768ZM113.963 68.04L114.158 69H112.853V68.85C112.853 68.85 112.888 68.85 112.958 68.85C113.028 68.85 113.063 68.85 113.063 68.85C113.313 68.85 113.518 68.77 113.678 68.61C113.838 68.45 113.923 68.26 113.933 68.04H113.963ZM114.848 60.96V60H115.958V60.15C115.958 60.15 115.928 60.15 115.868 60.15C115.808 60.15 115.778 60.15 115.778 60.15C115.538 60.15 115.328 60.23 115.148 60.39C114.978 60.54 114.893 60.73 114.893 60.96H114.848ZM113.963 60.96H113.933C113.923 60.73 113.833 60.54 113.663 60.39C113.493 60.23 113.283 60.15 113.033 60.15C113.033 60.15 113.003 60.15 112.943 60.15C112.883 60.15 112.853 60.15 112.853 60.15V60H113.963V60.96ZM134.178 60V69H133.233V60H134.178ZM133.278 68.04V69H132.003V68.85C132.003 68.85 132.038 68.85 132.108 68.85C132.178 68.85 132.213 68.85 132.213 68.85C132.493 68.85 132.728 68.77 132.918 68.61C133.118 68.45 133.223 68.26 133.233 68.04H133.278ZM134.133 68.04H134.178C134.188 68.26 134.288 68.45 134.478 68.61C134.678 68.77 134.918 68.85 135.198 68.85C135.198 68.85 135.228 68.85 135.288 68.85C135.358 68.85 135.393 68.85 135.393 68.85L135.408 69H134.133V68.04ZM134.133 60.96V60H135.408L135.393 60.15C135.393 60.15 135.358 60.15 135.288 60.15C135.228 60.15 135.198 60.15 135.198 60.15C134.918 60.15 134.678 60.23 134.478 60.39C134.288 60.54 134.188 60.73 134.178 60.96H134.133ZM133.278 60.96H133.233C133.223 60.73 133.118 60.54 132.918 60.39C132.728 60.23 132.493 60.15 132.213 60.15C132.203 60.15 132.163 60.15 132.093 60.15C132.033 60.15 132.003 60.15 132.003 60.15V60H133.278V60.96ZM152.732 59.79L156.857 68.91H155.672L152.477 61.125L152.732 59.79ZM149.837 67.905C149.727 68.205 149.742 68.44 149.882 68.61C150.022 68.77 150.182 68.85 150.362 68.85H150.482V69H147.617V68.85C147.617 68.85 147.637 68.85 147.677 68.85C147.717 68.85 147.737 68.85 147.737 68.85C147.947 68.85 148.162 68.78 148.382 68.64C148.602 68.49 148.792 68.245 148.952 67.905H149.837ZM152.732 59.79L152.837 60.825L149.402 68.955H148.457L152.012 61.335C152.012 61.335 152.037 61.275 152.087 61.155C152.147 61.035 152.212 60.89 152.282 60.72C152.362 60.54 152.432 60.365 152.492 60.195C152.552 60.025 152.587 59.89 152.597 59.79H152.732ZM154.502 65.505V65.955H150.527V65.505H154.502ZM155.267 67.905H156.407C156.557 68.245 156.742 68.49 156.962 68.64C157.182 68.78 157.392 68.85 157.592 68.85C157.592 68.85 157.612 68.85 157.652 68.85C157.692 68.85 157.712 68.85 157.712 68.85V69H154.637V68.85H154.757C154.927 68.85 155.082 68.77 155.222 68.61C155.362 68.44 155.377 68.205 155.267 67.905ZM170.734 59.775L179.044 67.605L179.194 69.21L170.884 61.335L170.734 59.775ZM170.764 68.07V69H169.639V68.85C169.639 68.85 169.679 68.85 169.759 68.85C169.849 68.85 169.894 68.85 169.894 68.85C170.124 68.85 170.319 68.775 170.479 68.625C170.639 68.475 170.719 68.29 170.719 68.07H170.764ZM171.394 68.07C171.394 68.29 171.474 68.475 171.634 68.625C171.804 68.775 171.999 68.85 172.219 68.85C172.219 68.85 172.259 68.85 172.339 68.85C172.429 68.85 172.474 68.85 172.474 68.85V69H171.349V68.07H171.394ZM170.734 59.775L171.379 60.615L171.394 69H170.719V61.65C170.719 61.14 170.694 60.7 170.644 60.33C170.604 59.96 170.584 59.775 170.584 59.775H170.734ZM179.194 60V67.29C179.194 67.61 179.204 67.92 179.224 68.22C179.244 68.51 179.264 68.75 179.284 68.94C179.314 69.12 179.329 69.21 179.329 69.21H179.194L178.534 68.415V60H179.194ZM179.149 60.93V60H180.274V60.15C180.274 60.15 180.229 60.15 180.139 60.15C180.059 60.15 180.019 60.15 180.019 60.15C179.799 60.15 179.604 60.225 179.434 60.375C179.274 60.525 179.194 60.71 179.194 60.93H179.149ZM178.534 60.93C178.524 60.71 178.439 60.525 178.279 60.375C178.119 60.225 177.924 60.15 177.694 60.15C177.694 60.15 177.649 60.15 177.559 60.15C177.479 60.15 177.439 60.15 177.439 60.15V60H178.564V60.93H178.534ZM210.368 60V69H209.423V60H210.368ZM213.743 64.275V64.725H210.338V64.275H213.743ZM214.448 60V60.465H210.338V60H214.448ZM213.743 64.695V65.55H213.578V65.355C213.578 65.185 213.528 65.04 213.428 64.92C213.338 64.79 213.183 64.725 212.963 64.725V64.695H213.743ZM213.743 63.45V64.305H212.963V64.275C213.183 64.275 213.338 64.215 213.428 64.095C213.528 63.965 213.578 63.815 213.578 63.645V63.45H213.743ZM214.448 60.42V61.455H214.283V61.23C214.283 61.02 214.213 60.84 214.073 60.69C213.943 60.54 213.763 60.465 213.533 60.465V60.42H214.448ZM214.448 59.76V60.15L212.723 60C212.933 60 213.153 59.99 213.383 59.97C213.613 59.94 213.823 59.905 214.013 59.865C214.213 59.825 214.358 59.79 214.448 59.76ZM209.453 68.04L209.648 69H208.328V68.85C208.328 68.85 208.363 68.85 208.433 68.85C208.503 68.85 208.538 68.85 208.538 68.85C208.788 68.85 208.993 68.77 209.153 68.61C209.323 68.45 209.413 68.26 209.423 68.04H209.453ZM209.453 60.945H209.423C209.413 60.715 209.323 60.525 209.153 60.375C208.993 60.225 208.788 60.15 208.538 60.15C208.538 60.15 208.503 60.15 208.433 60.15C208.363 60.15 208.328 60.15 208.328 60.15V60H209.648L209.453 60.945ZM210.338 68.04H210.368C210.378 68.26 210.463 68.45 210.623 68.61C210.793 68.77 211.003 68.85 211.253 68.85C211.253 68.85 211.288 68.85 211.358 68.85C211.428 68.85 211.463 68.85 211.463 68.85V69H210.143L210.338 68.04ZM232.415 59.79C233.115 59.79 233.77 59.905 234.38 60.135C235 60.355 235.54 60.675 236 61.095C236.47 61.515 236.835 62.015 237.095 62.595C237.355 63.165 237.485 63.8 237.485 64.5C237.485 65.2 237.355 65.84 237.095 66.42C236.835 66.99 236.47 67.485 236 67.905C235.54 68.325 235 68.65 234.38 68.88C233.77 69.1 233.115 69.21 232.415 69.21C231.715 69.21 231.06 69.1 230.45 68.88C229.84 68.65 229.3 68.325 228.83 67.905C228.37 67.485 228.01 66.99 227.75 66.42C227.49 65.84 227.36 65.2 227.36 64.5C227.36 63.8 227.49 63.165 227.75 62.595C228.01 62.015 228.37 61.515 228.83 61.095C229.3 60.675 229.84 60.355 230.45 60.135C231.06 59.905 231.715 59.79 232.415 59.79ZM232.415 68.76C233.155 68.76 233.825 68.58 234.425 68.22C235.025 67.86 235.5 67.36 235.85 66.72C236.2 66.08 236.375 65.34 236.375 64.5C236.375 63.65 236.2 62.91 235.85 62.28C235.5 61.64 235.025 61.14 234.425 60.78C233.825 60.42 233.155 60.24 232.415 60.24C231.685 60.24 231.02 60.42 230.42 60.78C229.82 61.14 229.345 61.64 228.995 62.28C228.645 62.91 228.47 63.65 228.47 64.5C228.47 65.34 228.645 66.08 228.995 66.72C229.345 67.36 229.82 67.86 230.42 68.22C231.02 68.58 231.685 68.76 232.415 68.76ZM255.506 59.79C256.206 59.79 256.861 59.905 257.471 60.135C258.091 60.355 258.631 60.675 259.091 61.095C259.561 61.515 259.926 62.015 260.186 62.595C260.446 63.165 260.576 63.8 260.576 64.5C260.576 65.2 260.446 65.84 260.186 66.42C259.926 66.99 259.561 67.485 259.091 67.905C258.631 68.325 258.091 68.65 257.471 68.88C256.861 69.1 256.206 69.21 255.506 69.21C254.806 69.21 254.151 69.1 253.541 68.88C252.931 68.65 252.391 68.325 251.921 67.905C251.461 67.485 251.101 66.99 250.841 66.42C250.581 65.84 250.451 65.2 250.451 64.5C250.451 63.8 250.581 63.165 250.841 62.595C251.101 62.015 251.461 61.515 251.921 61.095C252.391 60.675 252.931 60.355 253.541 60.135C254.151 59.905 254.806 59.79 255.506 59.79ZM255.506 68.76C256.246 68.76 256.916 68.58 257.516 68.22C258.116 67.86 258.591 67.36 258.941 66.72C259.291 66.08 259.466 65.34 259.466 64.5C259.466 63.65 259.291 62.91 258.941 62.28C258.591 61.64 258.116 61.14 257.516 60.78C256.916 60.42 256.246 60.24 255.506 60.24C254.776 60.24 254.111 60.42 253.511 60.78C252.911 61.14 252.436 61.64 252.086 62.28C251.736 62.91 251.561 63.65 251.561 64.5C251.561 65.34 251.736 66.08 252.086 66.72C252.436 67.36 252.911 67.86 253.511 68.22C254.111 68.58 254.776 68.76 255.506 68.76ZM278.408 60C279.398 60 280.253 60.18 280.973 60.54C281.693 60.9 282.248 61.42 282.638 62.1C283.028 62.77 283.223 63.57 283.223 64.5C283.223 65.43 283.028 66.23 282.638 66.9C282.248 67.57 281.693 68.09 280.973 68.46C280.253 68.82 279.398 69 278.408 69H275.213L275.183 68.55C275.883 68.55 276.468 68.55 276.938 68.55C277.418 68.55 277.783 68.55 278.033 68.55C278.283 68.55 278.408 68.55 278.408 68.55C279.568 68.55 280.478 68.19 281.138 67.47C281.808 66.74 282.143 65.75 282.143 64.5C282.143 63.25 281.808 62.265 281.138 61.545C280.478 60.815 279.568 60.45 278.408 60.45C278.408 60.45 278.278 60.45 278.018 60.45C277.758 60.45 277.378 60.45 276.878 60.45C276.378 60.45 275.763 60.45 275.033 60.45V60H278.408ZM275.423 60V69H274.448V60H275.423ZM274.478 68.025V69H273.398V68.85C273.398 68.85 273.428 68.85 273.488 68.85C273.558 68.85 273.593 68.85 273.593 68.85C273.833 68.85 274.033 68.77 274.193 68.61C274.353 68.44 274.438 68.245 274.448 68.025H274.478ZM274.478 60.975H274.448C274.438 60.735 274.348 60.54 274.178 60.39C274.018 60.23 273.818 60.15 273.578 60.15C273.578 60.15 273.548 60.15 273.488 60.15C273.428 60.15 273.398 60.15 273.398 60.15V60H274.478V60.975Z" fill="#FFFCFC"/>
</svg>
