<svg width="27" height="31" viewBox="0 0 27 31" fill="none" xmlns="http://www.w3.org/2000/svg">
<path d="M20.625 10.125V8.25C20.625 4.14844 17.2266 0.75 13.125 0.75C8.96484 0.75 5.625 4.14844 5.625 8.25V10.125H0V26.0625C0 28.6992 2.05078 30.75 4.6875 30.75H21.5625C24.1406 30.75 26.25 28.6992 26.25 26.0625V10.125H20.625ZM9.375 8.25C9.375 6.19922 11.0156 4.5 13.125 4.5C15.1758 4.5 16.875 6.19922 16.875 8.25V10.125H9.375V8.25ZM18.75 15.2812C17.9297 15.2812 17.3438 14.6953 17.3438 13.875C17.3438 13.1133 17.9297 12.4688 18.75 12.4688C19.5117 12.4688 20.1562 13.1133 20.1562 13.875C20.1562 14.6953 19.5117 15.2812 18.75 15.2812ZM7.5 15.2812C6.67969 15.2812 6.09375 14.6953 6.09375 13.875C6.09375 13.1133 6.67969 12.4688 7.5 12.4688C8.26172 12.4688 8.90625 13.1133 8.90625 13.875C8.90625 14.6953 8.26172 15.2812 7.5 15.2812Z" fill="white"/>
</svg>
